<svg xmlns="http://www.w3.org/2000/svg" width="110" height="38" viewBox="0 0 110 38">
  <g fill="white" fill-rule="evenodd">
    <polyline points="56.222 11.298 59.954 11.298 59.954 9.424 56.222 9.424 56.222 6.926 60.857 6.926 60.857 5.051 54.296 5.051 54.296 15.984 56.222 15.984 56.222 11.298"/>
    <path d="M64.0348863,6.63555685 C64.4414871,6.20727866 64.4414871,5.48847259 64.0348863,5.05969349 C63.6287604,4.63141531 62.947609,4.63141531 62.5410081,5.05969349 C62.1344072,5.48847259 62.1344072,6.20727866 62.5410081,6.63555685 C62.947609,7.06433594 63.6287604,7.06433594 64.0348863,6.63555685"/>
    <polygon points="62.37 8.113 64.206 8.113 64.206 15.984 62.37 15.984"/>
    <polygon points="66.219 4.926 68.055 4.926 68.055 15.984 66.219 15.984"/>
    <path d="M78.3490417 7.98751336C77.4014147 7.98751336 76.6461631 8.53400634 76.0685619 9.61146409 75.7583862 8.53400634 74.9432845 7.98751336 73.9809324 7.98751336 73.1368556 7.98751336 72.4105791 8.45586436 71.8329779 9.37753905L71.8329779 8.11223999 69.997099 8.11223999 69.997099 15.9835422 71.8329779 15.9835422 71.8329779 13.0942924C71.8329779 10.8452058 72.4994043 9.64302143 73.4475063 9.64302143 74.0545576 9.64302143 74.3652083 10.002174 74.3652083 10.7365083L74.3652083 15.9835422 76.2020372 15.9835422 76.2020372 12.9224802C76.2020372 10.7986212 76.8684636 9.64302143 77.8160906 9.64302143 78.4236169 9.64302143 78.7352176 10.002174 78.7352176 10.7365083L78.7352176 15.9835422 80.5710965 15.9835422 80.5710965 10.4084122C80.5710965 8.89315893 79.7270197 7.98751336 78.3490417 7.98751336M58.1320487 26.8157243L56.2215946 26.8157243 56.2215946 23.9109463 58.1320487 23.9109463C59.0355006 23.9109463 59.4948266 24.3948256 59.4948266 25.3630849 59.4948266 26.3318451 59.0355006 26.8157243 58.1320487 26.8157243L58.1320487 26.8157243zM58.2061489 22.0365405L54.2964155 22.0365405 54.2964155 32.9689047 56.2215946 32.9689047 56.2215946 28.6901301 58.2061489 28.6901301C60.3241784 28.6901301 61.4494558 27.3622173 61.4494558 25.3630849 61.4494558 23.3639524 60.3241784 22.0365405 58.2061489 22.0365405L58.2061489 22.0365405zM64.6794626 26.3784298L64.6794626 25.0976025 62.8426337 25.0976025 62.8426337 32.9689047 64.6794626 32.9689047 64.6794626 30.1733251C64.6794626 27.7839837 65.5083394 26.706025 66.6787419 26.706025 66.9599425 26.706025 67.2259431 26.7846679 67.4487185 26.9249228L67.7892943 25.1291598C67.4629686 25.0194605 67.1670429 24.9728759 66.8863173 24.9728759 66.0123155 24.9728759 65.2124138 25.4883124 64.6794626 26.3784298M73.8184821 30.7513754C73.4779064 31.2041982 73.0337804 31.4386242 72.4557042 31.4386242 71.878578 31.4386242 71.433977 31.2041982 71.0934013 30.7513754 70.7528256 30.2825235 70.5899002 29.7049741 70.5899002 29.0332536 70.5899002 28.3615331 70.7528256 27.7839837 71.0934013 27.3311609 71.433977 26.862309 71.878578 26.627883 72.4557042 26.627883 73.0337804 26.627883 73.4779064 26.862309 73.8184821 27.3311609 74.1595328 27.7839837 74.3219832 28.3615331 74.3219832 29.0332536 74.3219832 29.7049741 74.1595328 30.2825235 73.8184821 30.7513754L73.8184821 30.7513754zM72.4557042 24.9728759C71.2857767 24.9728759 70.3675997 25.3630849 69.6869233 26.1289765 69.0052969 26.8938663 68.6647211 27.8621257 68.6647211 29.0332536 68.6647211 30.2048825 69.0052969 31.18867 69.6869233 31.9540607 70.3675997 32.7189505 71.2857767 33.0941322 72.4557042 33.0941322 73.6261067 33.0941322 74.5442836 32.7189505 75.2254351 31.9540607 75.9065865 31.18867 76.2471623 30.2048825 76.2471623 29.0332536 76.2471623 27.8621257 75.9065865 26.8938663 75.2254351 26.1289765 74.5442836 25.3630849 73.6261067 24.9728759 72.4557042 24.9728759L72.4557042 24.9728759zM77.9799659 32.2976851C77.9799659 33.6877108 77.4170898 34.2652602 76.2471623 34.5778281L76.6912882 36.2794199C78.8240427 35.7649852 79.8158449 34.5152144 79.8158449 32.0632591L79.8158449 25.0976025 77.9799659 25.0976025 77.9799659 32.2976851M83.2187521 28.128109C83.3517524 27.2996036 83.9592787 26.6283839 84.8328055 26.6283839 85.6920824 26.6283839 86.2245585 27.1282923 86.4321339 28.128109L83.2187521 28.128109 83.2187521 28.128109zM84.8328055 24.9728759C82.2706501 24.9728759 81.2489229 27.1593487 81.2489229 29.0332536 81.2489229 30.9076594 82.2706501 33.0936313 84.8328055 33.0936313 86.462059 33.0936313 87.5873364 32.3287415 88.2238377 30.7979601L86.7432596 30.2204107C86.2991337 31.0318851 85.6920824 31.4386242 84.9363558 31.4386242 83.8704535 31.4386242 83.2187521 30.6106197 83.174102 29.6583895L88.3131379 29.6583895 88.3131379 28.8619423C88.3131379 27.9713241 88.0466624 27.0501503 87.5132362 26.2847596 86.9798101 25.4878115 86.0174581 24.9728759 84.8328055 24.9728759L84.8328055 24.9728759zM93.2046983 26.6283839C93.959475 26.6283839 94.5518012 27.0656785 94.9517521 27.9242385L96.5952556 27.2219625C96.0176543 25.7222375 94.8928519 24.9728759 93.2046983 24.9728759 92.0342959 24.9728759 91.146044 25.3635858 90.5085926 26.1284756 89.8720913 26.8943672 89.5609656 27.8621257 89.5609656 29.0332536 89.5609656 30.2048825 89.8720913 31.1731418 90.5085926 31.9380316 91.146044 32.7034223 92.0342959 33.0941322 93.2046983 33.0941322 94.8928519 33.0941322 96.0176543 32.3447707 96.5952556 30.8450456L94.9517521 30.1422687C94.5518012 31.0013296 93.959475 31.4386242 93.2046983 31.4386242 92.078946 31.4386242 91.4861447 30.4703648 91.4861447 29.0332536 91.4861447 27.5966433 92.078946 26.6283839 93.2046983 26.6283839M102.309518 31.2507829C102.086742 31.3760104 101.850192 31.4386242 101.598441 31.4386242 100.94674 31.4386242 100.620889 31.0949998 100.620889 30.1577969L100.620889 26.7536115 102.590718 26.7536115 102.590718 25.0976025 100.620889 25.0976025 100.620889 21.9123148 98.7850102 23.1300274 98.7850102 25.0976025 97.6293328 25.0976025 97.6293328 26.7536115 98.7850102 26.7536115 98.7850102 30.1888533C98.7850102 32.1098438 99.8067374 33.0941322 101.524341 33.0941322 101.954217 33.0941322 102.353693 33.000462 102.738919 32.8126207L102.309518 31.2507829M17.409737 9.64302143C16.5366852 9.64302143 15.9291589 10.314241 15.7961586 11.1427464L19.0095405 11.1427464C18.80244 10.1429298 18.2690139 9.64302143 17.409737 9.64302143"/>
    <path d="M41.8494891 15.343379C41.360713 15.8588156 40.7242117 16.1082688 39.939035 16.1082688 39.2279585 16.1082688 38.6061822 15.8903729 38.0879561 15.4681056 37.569255 15.0463393 37.1987542 14.5469319 36.9769287 13.9849107L38.4427818 13.1564053C38.7391824 14.0159671 39.2426835 14.4532617 39.939035 14.4532617 40.5460863 14.4532617 40.8567369 14.1717502 40.8567369 13.609729 40.8567369 13.3597748 40.7389367 13.1564053 40.4572611 13.0166513 40.3242608 12.9375075 40.1755855 12.8753947 40.0430602 12.82881 39.7908347 12.7035825 39.2721336 12.5317703 38.990933 12.4070437 38.043306 11.9852773 37.4804298 11.4077279 37.4804298 10.2831846 37.4804298 9.64252052 37.7032052 9.11205666 38.1473312 8.65873297 38.5909821 8.20591019 39.1685834 7.98751336 39.8649348 7.98751336 40.8567369 7.98751336 41.7312138 8.502449 42.2047898 9.26783972L41.1084875 10.3302702C40.7683868 9.87744738 40.3537109 9.64252052 39.8649348 9.64252052 39.494909 9.64252052 39.1837834 9.87744738 39.1837834 10.2987128 39.1837834 10.626809 39.4203339 10.8762622 39.8943849 11.0636026L40.427811 11.2669722 41.0643124 11.5013981C41.1830626 11.5479828 41.360713 11.6576821 41.5977385 11.7979369 41.8494891 11.9386927 42.0266644 12.0634193 42.1302147 12.2041751 42.3529901 12.4696574 42.5900156 12.9375075 42.5900156 13.4850023 42.5900156 14.2188357 42.3377901 14.8279425 41.8494891 15.343379L41.8494891 15.343379zM35.6136758 15.9835422L33.7768469 15.9835422 33.7768469 14.7182431C33.1697956 15.6399178 32.3993439 16.1087697 31.466442 16.1087697 30.089889 16.1087697 29.1712371 15.2807652 29.1712371 13.7344556L29.1712371 8.11223999 31.007591 8.11223999 31.007591 13.1564053C31.007591 14.0159671 31.3628917 14.4532617 32.0734933 14.4532617 33.0220703 14.4532617 33.7768469 13.2345473 33.7768469 11.2514439L33.7768469 8.11223999 35.6136758 8.11223999 35.6136758 15.9835422 35.6136758 15.9835422zM26.8304321 15.343379C26.3421311 15.8588156 25.7046797 16.1082688 24.919978 16.1082688 24.2093765 16.1082688 23.5871252 15.8903729 23.0688991 15.4681056 22.550198 15.0463393 22.1801722 14.5469319 21.9578717 13.9849107L23.4241998 13.1564053C23.7201255 14.0159671 24.2236266 14.4532617 24.919978 14.4532617 25.5265543 14.4532617 25.83768 14.1717502 25.83768 13.609729 25.83768 13.3597748 25.7194047 13.1564053 25.4382041 13.0166513 25.3047289 12.9375075 25.1565285 12.8753947 25.0235283 12.82881 24.7717777 12.7035825 24.2535516 12.5317703 23.971876 12.4070437 23.024249 11.9852773 22.4608978 11.4077279 22.4608978 10.2831846 22.4608978 9.64252052 22.6836733 9.11205666 23.1277992 8.65873297 23.5714502 8.20591019 24.1495264 7.98751336 24.8454029 7.98751336 25.83768 7.98751336 26.7116818 8.502449 27.1857329 9.26783972L26.0894305 10.3302702C25.7488548 9.87744738 25.3346539 9.64252052 24.8454029 9.64252052 24.4758521 9.64252052 24.1647264 9.87744738 24.1647264 10.2987128 24.1647264 10.626809 24.4012769 10.8762622 24.8753279 11.0636026L25.4087541 11.2669722 26.0452554 11.5013981C26.1640057 11.5479828 26.3421311 11.6576821 26.5786816 11.7979369 26.8304321 11.9386927 27.0080825 12.0634193 27.1116327 12.2041751 27.3339332 12.4696574 27.5704837 12.9375075 27.5704837 13.4850023 27.5704837 14.2188357 27.3187331 14.8279425 26.8304321 15.343379L26.8304321 15.343379zM20.8905445 12.6725261L15.7515085 12.6725261C15.7961586 13.6252572 16.44786 14.4532617 17.5132873 14.4532617 18.2694889 14.4532617 18.8765402 14.0465226 19.3206661 13.2350482L20.8017193 13.8130985C20.1647429 15.3438799 19.0394655 16.1082688 17.409737 16.1082688 14.8485316 16.1082688 13.8263294 13.9222969 13.8263294 12.0478911 13.8263294 10.1734853 14.8485316 7.98751336 17.409737 7.98751336 18.5948646 7.98751336 19.5576916 8.50294991 20.0911178 9.29939706 20.6240689 10.0647878 20.8905445 10.9859616 20.8905445 11.8760789L20.8905445 12.6725261 20.8905445 12.6725261zM12.1514759 12.1420622C12.1514759 14.9686982 10.9967484 16.1087697 8.84926883 16.1087697 7.05756502 16.1087697 5.8719625 15.0463393 5.65061203 13.2816328L7.54634106 12.8598665C7.70879141 13.7815411 8.15291735 14.2343639 8.84926883 14.2343639 9.73799572 14.2343639 10.2267718 13.7344556 10.2267718 12.3599581L10.2267718 5.05167893 12.1514759 5.05167893 12.1514759 12.1420622 12.1514759 12.1420622zM45.7725224.161293071L2.46763025.161293071C1.18180251.161293071.138700295 1.26079086.138700295 2.61725557L.138700295 21.4063956C.138700295 22.5073961.833626774 23.4741527 1.83967892 23.7711924L46.98425 37.1119326C47.5452262 37.277233 48.1014524 36.8329257 48.1014524 36.2183089L48.1014524 2.61725557C48.1014524 1.26079086 47.0588251.161293071 45.7725224.161293071L45.7725224.161293071zM78.1509663 22.045056C77.7443654 22.4738351 77.7443654 23.1926412 78.1509663 23.6209194 78.5575672 24.0496985 79.2387186 24.0496985 79.6453195 23.6209194 80.0514454 23.1926412 80.0514454 22.4738351 79.6453195 22.045056 79.2387186 21.6167778 78.5575672 21.6167778 78.1509663 22.045056M106.723862 19.224384C107.247202 19.224384 107.75814 19.35866 108.25669 19.627216 108.75524 19.8957721 109.143608 20.280008 109.421804 20.7799354 109.700001 21.2798628 109.839097 21.8011291 109.839097 22.34375 109.839097 22.8808621 109.702066 23.3973082 109.428001 23.893104 109.153937 24.3888997 108.769701 24.7738243 108.275282 25.0478891 107.780864 25.321954 107.263729 25.4589844 106.723862 25.4589844 106.183996 25.4589844 105.666861 25.321954 105.172443 25.0478891 104.678024 24.7738243 104.2931 24.3888997 104.017657 23.893104 103.742215 23.3973082 103.604496 22.8808621 103.604496 22.34375 103.604496 21.8011291 103.744281 21.2798628 104.023855 20.7799354 104.303429 20.280008 104.692485 19.8957721 105.191035 19.627216 105.689585 19.35866 106.200522 19.224384 106.723862 19.224384zM106.723862 19.7408353C106.285909 19.7408353 105.859669 19.8530763 105.445129 20.0775616 105.030589 20.3020469 104.70626 20.6229321 104.472135 21.0402269 104.238009 21.4575216 104.120948 21.892025 104.120948 22.34375 104.120948 22.7927206 104.235943 23.2230924 104.465937 23.6348783 104.695931 24.0466642 105.017505 24.3675494 105.430668 24.5975436 105.843831 24.8275377 106.274892 24.9425331 106.723862 24.9425331 107.172833 24.9425331 107.603893 24.8275377 108.017056 24.5975436 108.43022 24.3675494 108.751105 24.0466642 108.979722 23.6348783 109.208339 23.2230924 109.322645 22.7927206 109.322645 22.34375 109.322645 21.892025 109.206273 21.4575216 108.973524 21.0402269 108.740776 20.6229321 108.416448 20.3020469 108.00053 20.0775616 107.584612 19.8530763 107.159061 19.7408353 106.723862 19.7408353zM105.356299 24.0666316L105.356299 20.7117638 106.509019 20.7117638C106.902901 20.7117638 107.187979 20.7427506 107.364262 20.8047251 107.540545 20.8666995 107.681018 20.9748089 107.785686 21.1290565 107.890354 21.2833041 107.942687 21.4471896 107.942687 21.6207181 107.942687 21.8658616 107.855236 22.079326 107.68033 22.2611178 107.505424 22.4429096 107.273368 22.5448216 106.984154 22.566857 107.102594 22.6164365 107.19762 22.6756557 107.269235 22.7445162 107.404202 22.8767284 107.569464 23.098456 107.765028 23.4097055L108.174058 24.0666316 107.513 24.0666316 107.215524 23.5377855C106.981398 23.1218679 106.792723 22.861579 106.649493 22.7569111 106.550334 22.6797873 106.405729 22.641226 106.215674 22.641226L105.89754 22.641226 105.89754 24.0666316 105.356299 24.0666316zM105.89754 22.1784856L106.554466 22.1784856C106.86847 22.1784856 107.082623 22.1316611 107.196932 22.0380108 107.31124 21.9443605 107.368394 21.8204134 107.368394 21.6661659 107.368394 21.5670067 107.34085 21.478178 107.285761 21.399677 107.230673 21.321176 107.154239 21.2626454 107.056457 21.2240835 106.958675 21.1855216 106.777575 21.166241 106.51315 21.166241L105.89754 21.166241 105.89754 22.1784856z"/>
  </g>
</svg>
